<?xml version="1.0" standalone="no"?><!DOCTYPE svg PUBLIC "-//W3C//DTD SVG 1.1//EN" "http://www.w3.org/Graphics/SVG/1.1/DTD/svg11.dtd"><svg t="1754056089242" class="icon" viewBox="0 0 1024 1024" version="1.1" xmlns="http://www.w3.org/2000/svg" p-id="5397" xmlns:xlink="http://www.w3.org/1999/xlink" width="512" height="512"><path d="M959.6928 1013.76H64.3072c-16.9984 0-30.72-13.7216-30.72-30.72V401.8176c0-16.9984 13.7216-30.72 30.72-30.72h895.3856c16.9984 0 30.72 13.7216 30.72 30.72V983.04c0 16.9984-13.7216 30.72-30.72 30.72z" fill="#7A7979" p-id="5398"></path><path d="M959.6928 371.0976H64.3072c-16.9984 0-30.72 13.7216-30.72 30.72v191.2832l387.072 74.3424c29.9008 5.7344 60.416 8.6016 90.7264 8.6016 30.3104 0 60.8256-2.8672 90.5216-8.6016l388.5056-74.5472v-191.2832c0-16.7936-13.7216-30.5152-30.72-30.5152z" fill="#4C4C4C" p-id="5399"></path><path d="M959.6928 1024H64.3072c-22.528 0-40.96-18.432-40.96-40.96V401.8176c0-22.528 18.432-40.96 40.96-40.96h895.3856c22.528 0 40.96 18.432 40.96 40.96V983.04c0 22.528-18.432 40.96-40.96 40.96zM64.3072 381.3376c-11.264 0-20.48 9.216-20.48 20.48V983.04c0 11.264 9.216 20.48 20.48 20.48h895.3856c11.264 0 20.48-9.216 20.48-20.48V401.8176c0-11.264-9.216-20.48-20.48-20.48H64.3072z" fill="#231F20" p-id="5400"></path><path d="M74.5472 662.9376c-5.7344 0-10.24-4.5056-10.24-10.24v-16.384c0-5.7344 4.5056-10.24 10.24-10.24s10.24 4.5056 10.24 10.24v16.384c0 5.5296-4.7104 10.24-10.24 10.24zM74.5472 983.04c-5.7344 0-10.24-4.5056-10.24-10.24V714.1376c0-5.7344 4.5056-10.24 10.24-10.24s10.24 4.5056 10.24 10.24V972.8c0 5.7344-4.7104 10.24-10.24 10.24z" fill="#C9C9C9" p-id="5401"></path><path d="M151.552 465.5104h68.1984V1013.76H151.552z" fill="#4C4C4C" p-id="5402"></path><path d="M219.7504 1024H151.552c-5.7344 0-10.24-4.5056-10.24-10.24V465.5104c0-5.7344 4.5056-10.24 10.24-10.24h68.1984c5.7344 0 10.24 4.5056 10.24 10.24V1013.76c0 5.7344-4.5056 10.24-10.24 10.24zM161.792 1003.52h47.7184V475.7504H161.792V1003.52z" fill="#231F20" p-id="5403"></path><path d="M802.816 465.5104h68.1984V1013.76H802.816z" fill="#4C4C4C" p-id="5404"></path><path d="M871.0144 1024H802.816c-5.7344 0-10.24-4.5056-10.24-10.24V465.5104c0-5.7344 4.5056-10.24 10.24-10.24h68.1984c5.7344 0 10.24 4.5056 10.24 10.24V1013.76c0 5.7344-4.5056 10.24-10.24 10.24zM813.056 1003.52h47.7184V475.7504H813.056V1003.52z" fill="#231F20" p-id="5405"></path><path d="M1013.76 523.8784v-122.2656c0-16.9984-13.7216-30.72-30.72-30.72H40.96c-16.9984 0-30.72 13.7216-30.72 30.72v122.2656c0 13.312 9.4208 24.7808 22.528 27.2384l395.6736 75.9808c54.6816 10.4448 111.0016 10.4448 165.888 0L991.232 551.1168c13.1072-2.4576 22.528-13.9264 22.528-27.2384z" fill="#7A7979" p-id="5406"></path><path d="M56.1152 430.08c-5.7344 0-10.24-4.5056-10.24-10.24v-7.7824c0-5.7344 4.5056-10.24 10.24-10.24s10.24 4.5056 10.24 10.24v7.7824c0 5.7344-4.7104 10.24-10.24 10.24zM56.1152 564.224c-5.7344 0-10.24-4.5056-10.24-10.24v-88.4736c0-5.7344 4.5056-10.24 10.24-10.24s10.24 4.5056 10.24 10.24v88.4736c0 5.7344-4.7104 10.24-10.24 10.24z" fill="#C9C9C9" p-id="5407"></path><path d="M511.3856 645.3248c-28.4672 0-56.7296-2.6624-84.992-8.192L30.72 561.152c-17.8176-3.4816-30.72-19.0464-30.72-37.2736v-122.2656c0-22.528 18.432-40.96 40.96-40.96h942.08c22.528 0 40.96 18.432 40.96 40.96v122.2656c0 18.2272-12.9024 33.792-30.72 37.2736l-397.1072 76.1856c-28.0576 5.3248-56.5248 7.9872-84.7872 7.9872zM40.96 381.3376c-11.264 0-20.48 9.216-20.48 20.48v122.2656c0 8.3968 5.9392 15.5648 14.1312 17.2032l395.6736 75.9808c53.6576 10.24 108.1344 10.24 161.9968 0l397.1072-76.1856c8.192-1.6384 14.1312-8.8064 14.1312-17.2032v-122.2656c0-11.264-9.216-20.48-20.48-20.48H40.96z" fill="#231F20" p-id="5408"></path><path d="M457.1136 635.0848a54.4768 54.272 90 1 0 108.544 0 54.4768 54.272 90 1 0-108.544 0Z" fill="#F9B630" p-id="5409"></path><path d="M511.3856 699.8016c-35.6352 0-64.512-29.0816-64.512-64.7168s29.0816-64.7168 64.512-64.7168c35.6352 0 64.512 29.0816 64.512 64.7168s-28.8768 64.7168-64.512 64.7168z m0-108.9536c-24.3712 0-44.032 19.8656-44.032 44.2368 0 24.3712 19.8656 44.2368 44.032 44.2368s44.032-19.8656 44.032-44.2368c0-24.3712-19.8656-44.2368-44.032-44.2368z" fill="#231F20" p-id="5410"></path><path d="M524.6976 645.3248c-5.7344 0-10.24-4.5056-10.24-10.24 0-1.8432-1.4336-3.2768-3.072-3.2768-1.8432 0-3.072 1.4336-3.072 3.2768 0 5.7344-4.5056 10.24-10.24 10.24s-10.24-4.5056-10.24-10.24c0-13.1072 10.6496-23.7568 23.552-23.7568 13.1072 0 23.552 10.6496 23.552 23.7568 0 5.7344-4.5056 10.24-10.24 10.24z" fill="#FFEDCC" p-id="5411"></path><path d="M856.064 880.4352h-38.2976c-28.2624 0-51.2-22.9376-51.2-51.2v-76.5952c0-28.2624 22.9376-51.2 51.2-51.2H856.064c28.2624 0 51.2 22.9376 51.2 51.2v76.5952c0 28.2624-22.9376 51.2-51.2 51.2z m-38.2976-142.1312c-7.9872 0-14.336 6.3488-14.336 14.336v76.5952c0 7.9872 6.3488 14.336 14.336 14.336H856.064c7.9872 0 14.336-6.3488 14.336-14.336v-76.5952c0-7.9872-6.3488-14.336-14.336-14.336h-38.2976z" fill="#F9B630" p-id="5412"></path><path d="M856.064 890.6752h-38.2976c-33.792 0-61.44-27.648-61.44-61.44v-76.5952c0-33.9968 27.648-61.44 61.44-61.44H856.064c33.792 0 61.44 27.648 61.44 61.44v76.5952c0 33.792-27.648 61.44-61.44 61.44z m-38.2976-178.9952c-22.528 0-40.96 18.432-40.96 40.96v76.5952c0 22.528 18.432 40.96 40.96 40.96H856.064c22.528 0 40.96-18.432 40.96-40.96v-76.5952c0-22.528-18.432-40.96-40.96-40.96h-38.2976z m38.2976 142.1312h-38.2976c-13.5168 0-24.576-11.0592-24.576-24.576v-76.5952c0-13.5168 11.0592-24.576 24.576-24.576H856.064c13.5168 0 24.576 11.0592 24.576 24.576v76.5952c0 13.5168-11.0592 24.576-24.576 24.576z m-38.2976-105.2672c-2.2528 0-4.096 1.8432-4.096 4.096v76.5952c0 2.2528 1.8432 4.096 4.096 4.096H856.064c2.2528 0 4.096-1.8432 4.096-4.096v-76.5952c0-2.2528-1.8432-4.096-4.096-4.096h-38.2976z" fill="#231F20" p-id="5413"></path><path d="M204.8 880.4352H166.5024c-28.2624 0-51.2-22.9376-51.2-51.2v-76.5952c0-28.2624 22.9376-51.2 51.2-51.2H204.8c28.2624 0 51.2 22.9376 51.2 51.2v76.5952c0 28.2624-22.9376 51.2-51.2 51.2z m-38.2976-142.1312c-7.9872 0-14.336 6.3488-14.336 14.336v76.5952c0 7.9872 6.3488 14.336 14.336 14.336H204.8c7.9872 0 14.336-6.3488 14.336-14.336v-76.5952c0-7.9872-6.3488-14.336-14.336-14.336H166.5024z" fill="#F9B630" p-id="5414"></path><path d="M204.8 890.6752H166.5024c-33.792 0-61.44-27.648-61.44-61.44v-76.5952c0-33.9968 27.648-61.44 61.44-61.44H204.8c33.792 0 61.44 27.648 61.44 61.44v76.5952c0 33.792-27.648 61.44-61.44 61.44z m-38.2976-178.9952c-22.528 0-40.96 18.432-40.96 40.96v76.5952c0 22.528 18.432 40.96 40.96 40.96H204.8c22.528 0 40.96-18.432 40.96-40.96v-76.5952c0-22.528-18.432-40.96-40.96-40.96H166.5024z m38.2976 142.1312H166.5024c-13.5168 0-24.576-11.0592-24.576-24.576v-76.5952c0-13.5168 11.0592-24.576 24.576-24.576H204.8c13.5168 0 24.576 11.0592 24.576 24.576v76.5952c0 13.5168-11.0592 24.576-24.576 24.576z m-38.2976-105.2672c-2.2528 0-4.096 1.8432-4.096 4.096v76.5952c0 2.2528 1.8432 4.096 4.096 4.096H204.8c2.2528 0 4.096-1.8432 4.096-4.096v-76.5952c0-2.2528-1.8432-4.096-4.096-4.096H166.5024z" fill="#231F20" p-id="5415"></path><path d="M693.6576 371.0976h-364.544v-94.208c0-68.4032 55.5008-124.1088 123.904-124.1088h116.736c68.4032 0 123.904 55.7056 123.904 124.1088v94.208z m-303.104 0h241.664v-94.208c0-34.4064-28.0576-62.464-62.464-62.464h-116.736c-34.4064 0-62.464 28.0576-62.464 62.464v94.208z" fill="#C9C9C9" p-id="5416"></path><path d="M693.6576 381.3376h-364.544c-5.7344 0-10.24-4.5056-10.24-10.24v-94.208c0-5.7344 4.5056-10.24 10.24-10.24s10.24 4.5056 10.24 10.24v83.968h40.96v-83.968c0-40.1408 32.5632-72.704 72.704-72.704h116.736c40.1408 0 72.704 32.5632 72.704 72.704v83.968h40.96v-83.968c0-62.6688-50.9952-113.8688-113.664-113.8688h-116.736c-34.4064 0-66.56 15.36-88.4736 42.3936-3.4816 4.3008-10.0352 5.12-14.336 1.4336s-5.12-10.0352-1.4336-14.336c25.6-31.744 63.6928-49.9712 104.2432-49.9712h116.736c73.9328 0 134.144 60.2112 134.144 134.3488v94.208c0 5.5296-4.7104 10.24-10.24 10.24z m-292.864-20.48h221.184v-83.968c0-28.8768-23.3472-52.224-52.224-52.224h-116.736c-28.8768 0-52.224 23.552-52.224 52.224v83.968zM334.6432 249.856c-1.024 0-2.048-0.2048-3.072-0.4096-5.3248-1.6384-8.3968-7.3728-6.7584-12.9024 0.6144-1.8432 1.2288-3.8912 1.8432-5.7344 1.8432-5.3248 7.7824-7.9872 13.1072-6.144 5.3248 1.8432 7.9872 7.7824 6.144 13.1072-0.6144 1.6384-1.024 3.2768-1.6384 4.7104-1.2288 4.7104-5.12 7.3728-9.6256 7.3728z" fill="#231F20" p-id="5417"></path><path d="M471.2448 205.2096c-11.0592 0-20.2752 9.0112-20.2752 20.2752v18.2272c0 11.264 9.0112 20.2752 20.2752 20.2752 11.0592 0 20.2752-9.0112 20.2752-20.2752v-18.432c0-11.0592-9.0112-20.0704-20.2752-20.0704z" fill="#F9B630" p-id="5418"></path><path d="M511.5904 205.2096c-11.0592 0-20.2752 9.0112-20.2752 20.2752v18.2272c0 11.264 9.0112 20.2752 20.2752 20.2752 11.0592 0 20.2752-9.0112 20.2752-20.2752v-18.432c0-11.0592-9.0112-20.0704-20.2752-20.0704zM552.1408 205.2096c-11.0592 0-20.2752 9.0112-20.2752 20.2752v18.2272c0 11.264 9.0112 20.2752 20.2752 20.2752 11.0592 0 20.2752-9.0112 20.2752-20.2752v-18.432c-0.2048-11.0592-9.216-20.0704-20.2752-20.0704z" fill="#F9B630" p-id="5419"></path><path d="M592.4864 205.2096c-11.0592 0-20.2752 9.0112-20.2752 20.2752v18.2272c0 11.264 9.0112 20.2752 20.2752 20.2752 11.0592 0 20.2752-9.0112 20.2752-20.2752v-18.432c0-11.0592-9.216-20.0704-20.2752-20.0704zM612.7616 10.24v142.5408l-120.832 0.8192c-10.24 0-19.6608 5.5296-24.576 14.336l-12.288 21.2992c-2.4576 4.3008-3.8912 9.4208-3.8912 14.5408v25.3952c0 11.0592-8.192 20.48-19.2512 21.2992-11.8784 0.8192-21.9136-8.8064-21.9136-20.48V161.1776c0-15.9744 4.9152-31.5392 14.336-44.4416l55.0912-76.5952c4.9152-6.7584 7.3728-14.7456 7.3728-23.1424V10.24" fill="#F9B630" p-id="5420"></path><path d="M430.4896 260.5056c-7.7824 0-15.1552-2.8672-21.0944-8.3968-6.144-5.7344-9.8304-13.9264-9.8304-22.528V161.1776c0-18.2272 5.5296-35.6352 16.1792-50.3808l55.296-76.5952c3.6864-5.12 5.5296-11.0592 5.5296-17.2032V10.24c0-5.7344 4.5056-10.24 10.24-10.24s10.24 4.5056 10.24 10.24v6.7584c0 10.4448-3.2768 20.6848-9.4208 29.0816L432.5376 122.88c-8.192 11.264-12.288 24.576-12.288 38.2976v68.608c0 2.8672 1.2288 5.5296 3.2768 7.5776s4.9152 2.8672 7.7824 2.6624c5.3248-0.4096 9.6256-5.3248 9.6256-11.0592V203.5712c0-6.9632 1.8432-13.7216 5.3248-19.6608l12.288-21.2992c6.9632-11.8784 19.6608-19.2512 33.3824-19.456l110.592-0.6144V10.24c0-5.7344 4.5056-10.24 10.24-10.24s10.24 4.5056 10.24 10.24v142.5408c0 5.5296-4.5056 10.24-10.24 10.24l-120.832 0.8192c-6.5536 0-12.6976 3.4816-15.9744 9.216l-12.288 21.2992c-1.6384 2.8672-2.4576 6.144-2.4576 9.216v25.3952c0 16.5888-12.6976 30.5152-28.672 31.5392h-2.048z" fill="#231F20" p-id="5421"></path><path d="M471.2448 274.0224c-16.7936 0-30.5152-13.7216-30.5152-30.5152V225.28c0-16.7936 13.7216-30.5152 30.5152-30.5152S501.76 208.4864 501.76 225.28v18.2272c0 16.7936-13.7216 30.5152-30.5152 30.5152z m0-58.5728c-5.5296 0-10.0352 4.5056-10.0352 10.0352v18.2272c0 5.5296 4.5056 10.0352 10.0352 10.0352s10.0352-4.5056 10.0352-10.0352v-18.432c0-5.3248-4.5056-9.8304-10.0352-9.8304z" fill="#231F20" p-id="5422"></path><path d="M511.5904 274.0224c-16.7936 0-30.5152-13.7216-30.5152-30.5152V225.28c0-16.7936 13.7216-30.5152 30.5152-30.5152s30.5152 13.7216 30.5152 30.5152v18.2272c0 16.7936-13.7216 30.5152-30.5152 30.5152z m0-58.5728c-5.5296 0-10.0352 4.5056-10.0352 10.0352v18.2272c0 5.5296 4.5056 10.0352 10.0352 10.0352s10.0352-4.5056 10.0352-10.0352v-18.432c0-5.3248-4.5056-9.8304-10.0352-9.8304z" fill="#231F20" p-id="5423"></path><path d="M552.1408 274.0224c-16.7936 0-30.5152-13.7216-30.5152-30.5152V225.28c0-16.7936 13.7216-30.5152 30.5152-30.5152s30.5152 13.7216 30.5152 30.5152v18.2272c-0.2048 16.7936-13.7216 30.5152-30.5152 30.5152z m0-58.5728c-5.5296 0-10.0352 4.5056-10.0352 10.0352v18.2272c0 5.5296 4.5056 10.0352 10.0352 10.0352s10.0352-4.5056 10.0352-10.0352v-18.432c-0.2048-5.3248-4.5056-9.8304-10.0352-9.8304z" fill="#231F20" p-id="5424"></path><path d="M592.4864 274.0224c-16.7936 0-30.5152-13.7216-30.5152-30.5152V225.28c0-16.7936 13.7216-30.5152 30.5152-30.5152s30.5152 13.7216 30.5152 30.5152v18.2272c0 16.7936-13.7216 30.5152-30.5152 30.5152z m0-58.5728c-5.5296 0-10.0352 4.5056-10.0352 10.0352v18.2272c0 5.5296 4.5056 10.0352 10.0352 10.0352s10.0352-4.5056 10.0352-10.0352v-18.432c0-5.3248-4.5056-9.8304-10.0352-9.8304z" fill="#231F20" p-id="5425"></path></svg>